<?xml version="1.0" encoding="utf-8"?>
<!-- Generator: Adobe Illustrator 21.1.0, SVG Export Plug-In . SVG Version: 6.00 Build 0)  -->
<svg version="1.1" id="Layer_1" xmlns="http://www.w3.org/2000/svg" xmlns:xlink="http://www.w3.org/1999/xlink" x="0px" y="0px"
	 viewBox="0 0 500 500" style="enable-background:new 0 0 500 500;" xml:space="preserve">
<g>
	<path d="M234.5,134.7c-1.8-1.8-4.3-2.9-6.9-2.9c-2.6,0-5.1,1-6.9,2.9c-1.8,1.8-2.9,4.3-2.9,6.9c0,2.6,1,5.1,2.9,6.9
		c1.8,1.8,4.3,2.9,6.9,2.9c2.6,0,5.1-1,6.9-2.9c1.8-1.8,2.9-4.3,2.9-6.9C237.4,139,236.3,136.5,234.5,134.7"/>
	<path d="M279.1,353.9c-1.8-1.8-4.3-2.9-6.9-2.9c-2.6,0-5.1,1-6.9,2.9c-1.8,1.8-2.9,4.3-2.9,6.9c0,2.6,1,5.1,2.9,6.9
		c1.8,1.8,4.3,2.9,6.9,2.9c2.6,0,5.1-1,6.9-2.9c1.8-1.8,2.9-4.3,2.9-6.9C281.9,358.2,280.9,355.7,279.1,353.9"/>
	<path d="M290,209.2c-5.4,0-9.8,4.4-9.8,9.8V281c0,5.4,4.4,9.8,9.8,9.8c5.4,0,9.8-4.4,9.8-9.8v-62.1
		C299.8,213.5,295.4,209.2,290,209.2"/>
	<path d="M228.9,258.1l4.4-11.7l4.4,11.7H228.9z M266,277.6l-23.5-62.1c-1.4-3.8-5.1-6.3-9.1-6.3c-4.1,0-7.7,2.5-9.1,6.3l-23.5,62.1
		c-1.9,5,0.6,10.7,5.7,12.6c5,1.9,10.7-0.6,12.6-5.7l2.6-6.8h23.6l2.6,6.8c1.5,3.9,5.2,6.3,9.1,6.3c1.1,0,2.3-0.2,3.5-0.6
		C265.4,288.2,267.9,282.6,266,277.6"/>
	<path d="M466.8,480.4c-7.5,0-13.7-6.1-13.7-13.7c0-7.5,6.1-13.7,13.7-13.7c7.5,0,13.7,6.1,13.7,13.7
		C480.5,474.3,474.3,480.4,466.8,480.4 M325.2,375.5c-4.2,0-7.6-3.4-7.6-7.6c0-4.2,3.4-7.6,7.6-7.6c4.2,0,7.6,3.4,7.6,7.6
		C332.9,372.1,329.5,375.5,325.2,375.5 M380.8,305.9c-7.1,0-12.8-5.8-12.8-12.8c0-7.1,5.8-12.8,12.8-12.8c7.1,0,12.8,5.8,12.8,12.8
		S387.9,305.9,380.8,305.9 M388.9,219.4c-4.2,0-7.6-3.4-7.6-7.6c0-4.2,3.4-7.6,7.6-7.6c4.2,0,7.6,3.4,7.6,7.6
		C396.5,216,393.1,219.4,388.9,219.4 M337.8,153.1c-6.1,0-11.1-5-11.1-11.1c0-6.1,5-11.1,11.1-11.1c6.1,0,11.1,5,11.1,11.1
		C348.9,148.1,343.9,153.1,337.8,153.1 M296.1,185.5l18.2,18.2v92.5l-18.2,18.2h-92.5l-18.2-18.2v-92.5l18.2-18.2H296.1z
		 M33.2,480.4c-7.5,0-13.7-6.1-13.7-13.7c0-7.5,6.1-13.7,13.7-13.7s13.7,6.1,13.7,13.7C46.9,474.3,40.7,480.4,33.2,480.4 M33.2,46.9
		c-7.5,0-13.7-6.1-13.7-13.7c0-7.5,6.1-13.7,13.7-13.7s13.7,6.1,13.7,13.7C46.9,40.8,40.7,46.9,33.2,46.9 M162,130.9
		c6.1,0,11.1,5,11.1,11.1s-5,11.1-11.1,11.1c-6.1,0-11.1-5-11.1-11.1S155.9,130.9,162,130.9 M110.9,204.2c4.2,0,7.6,3.4,7.6,7.6
		s-3.4,7.6-7.6,7.6c-4.2,0-7.6-3.4-7.6-7.6S106.6,204.2,110.9,204.2 M119,280.2c7.1,0,12.8,5.8,12.8,12.8s-5.8,12.8-12.8,12.8
		c-7.1,0-12.8-5.8-12.8-12.8C106.1,285.9,111.9,280.2,119,280.2 M174.5,360.3c4.2,0,7.6,3.4,7.6,7.6c0,4.2-3.4,7.6-7.6,7.6
		s-7.6-3.4-7.6-7.6C166.9,363.7,170.3,360.3,174.5,360.3 M466.8,19.6c7.5,0,13.7,6.1,13.7,13.7c0,7.5-6.1,13.7-13.7,13.7
		c-7.5,0-13.7-6.1-13.7-13.7C453.1,25.7,459.3,19.6,466.8,19.6 M466.8,433.5c-5.6,0-10.9,1.4-15.5,3.9l-26-26v-14.5
		c11-11.5,17.8-27.1,17.8-44.2c0-8.9-1.9-17.6-5.4-25.6c20.5-5.1,35.7-23.7,35.7-45.7v-86.9c0-24.8-19.3-45.2-43.6-47
		c1.1-3.9,1.6-7.9,1.6-12c0-8.3-2.2-16.1-6.1-22.9V88.6l26-26c4.6,2.5,9.9,3.9,15.5,3.9c18.3,0,33.2-14.9,33.2-33.2
		S485.1,0.1,466.8,0.1S433.6,15,433.6,33.3c0,5.6,1.4,10.9,3.9,15.5l-28.9,28.9c-1.8,1.8-2.9,4.3-2.9,6.9v9.5
		c-6.1-3-13-4.7-20.3-4.7c-4,0-7.8,0.5-11.6,1.5c-5.9-24.9-28.3-43.5-55-43.5c-31.1,0-56.5,25.3-56.5,56.5V166h-62.8
		c-2.6,0-5.1,1-6.9,2.9l-23.9,23.9c-1.8,1.8-2.9,4.3-2.9,6.9v100.5c0,2.6,1,5.1,2.9,6.9l23.9,23.9c1.8,1.8,4.3,2.9,6.9,2.9h18.2v62
		c0,20.5-16.7,37.2-37.2,37.2c-14.7,0-28-8.6-34-22c8.5-3.8,16.2-9.4,22.4-16.6c1.8,0.4,3.6,0.6,5.5,0.6c15,0,27.1-12.2,27.1-27.1
		c0-15-12.2-27.1-27.1-27.1c-15,0-27.1,12.2-27.1,27.1c0,5.9,1.9,11.3,5.1,15.8c-8.3,8.5-19.7,13.4-31.8,13.4
		c-24.5,0-44.5-19.9-44.5-44.5c0-9.3,2.8-18,8.1-25.5c5.9-1.4,11.5-3.9,16.4-7.4c5.2,3.6,11.5,5.7,18.3,5.7
		c17.8,0,32.4-14.5,32.4-32.4c0-17.8-14.5-32.4-32.4-32.4c-17.8,0-32.4,14.5-32.4,32.4c0,4,0.7,7.8,2,11.3
		c-4.5,2.9-9.7,4.5-15.2,4.5c-15.2,0-27.6-12.4-27.6-27.6v-86.9c0-15.2,12.4-27.6,27.6-27.6c12.6,0,23.3,8.5,26.6,20.2
		c-9.6,4.2-16.4,13.8-16.4,24.9c0,15,12.2,27.1,27.1,27.1c15,0,27.1-12.2,27.1-27.1c0-11.8-7.6-21.9-18.1-25.6
		c-2.7-15.2-12.7-28-26.2-34.4c-3.7-4.7-5.8-10.4-5.8-16.5c0-14.6,11.9-26.4,26.4-26.4c3.6,0,7.1,0.7,10.3,2.1
		c0.8,7.8,3.6,15.1,8.4,21.3c-1,3.1-1.6,6.4-1.6,9.8c0,16.9,13.7,30.6,30.6,30.6c16.9,0,30.6-13.7,30.6-30.6
		c0-16.9-13.7-30.6-30.6-30.6c-5.9,0-11.4,1.7-16.1,4.6c-1.3-2.8-2-5.9-2-9.2v-1.2c0-0.4,0-0.7,0-1.1v-0.7
		c0-20.4,16.6-36.9,36.9-36.9c20.4,0,36.9,16.6,36.9,36.9c0,5.4,4.4,9.8,9.8,9.8c5.4,0,9.8-4.4,9.8-9.8c0-31.1-25.3-56.5-56.5-56.5
		c-26.7,0-49.1,18.6-55,43.5c-3.8-1-7.7-1.5-11.6-1.5c-7.2,0-14,1.7-20.1,4.6v-9.4c0-2.6-1-5.1-2.9-6.9L62.5,48.8
		c2.5-4.6,3.9-9.9,3.9-15.5C66.4,15,51.5,0.1,33.2,0.1C14.9,0.1,0,15,0,33.3s14.9,33.2,33.2,33.2c5.6,0,10.9-1.4,15.5-3.9l26,26V112
		c-4,6.8-6.3,14.8-6.3,23.3c0,4.1,0.6,8.2,1.6,12c-24.4,1.8-43.6,22.2-43.6,47v86.9c0,22.1,15.2,40.6,35.7,45.7
		c-3.5,8-5.4,16.8-5.4,25.6c0,17.3,6.9,32.9,18,44.4v14.3l-26,26c-4.6-2.5-9.9-3.9-15.5-3.9C14.9,433.5,0,448.4,0,466.7
		c0,18.3,14.9,33.2,33.2,33.2c18.3,0,33.2-14.9,33.2-33.2c0-5.6-1.4-10.9-3.9-15.5l28.9-28.9c1.8-1.8,2.9-4.3,2.9-6.9v-4.6
		c8.1,3.7,17,5.7,26.5,5.7c2.3,0,4.6-0.1,6.8-0.4l1.2,2.6c9.1,20.5,29.5,33.8,51.9,33.8c31.3,0,56.8-25.5,56.8-56.8v-62h62.8
		c2.6,0,5.1-1,6.9-2.9l23.9-23.9c1.8-1.8,2.9-4.3,2.9-6.9V199.7c0-2.6-1-5.1-2.9-6.9l-23.9-23.9c-1.8-1.8-4.3-2.9-6.9-2.9h-18.2
		v-62.3c0-20.4,16.6-36.9,36.9-36.9s36.9,16.6,36.9,36.9v0.7c0,0.4,0,0.7,0,1.1v1.2c0,3.2-0.7,6.3-2,9.2c-4.7-2.9-10.2-4.6-16.1-4.6
		c-16.9,0-30.6,13.7-30.6,30.6c0,16.9,13.7,30.6,30.6,30.6c16.9,0,30.6-13.7,30.6-30.6c0-3.4-0.6-6.7-1.6-9.8
		c4.7-6.2,7.6-13.5,8.4-21.3c3.2-1.4,6.7-2.1,10.3-2.1c14.6,0,26.4,11.9,26.4,26.4c0,6-2,11.8-5.8,16.5
		c-13.6,6.5-23.6,19.2-26.2,34.4c-10.5,3.7-18.1,13.8-18.1,25.6c0,15,12.2,27.1,27.1,27.1c15,0,27.1-12.2,27.1-27.1
		c0-11.1-6.7-20.7-16.4-24.9c3.3-11.6,13.9-20.2,26.6-20.2c15.2,0,27.6,12.4,27.6,27.6v86.9c0,15.2-12.4,27.6-27.6,27.6
		c-5.5,0-10.7-1.6-15.2-4.5c1.3-3.5,2-7.3,2-11.3c0-17.8-14.5-32.4-32.4-32.4c-17.8,0-32.4,14.5-32.4,32.4
		c0,17.8,14.5,32.4,32.4,32.4c6.8,0,13.1-2.1,18.3-5.7c4.9,3.5,10.5,6,16.4,7.4c5.3,7.5,8.1,16.2,8.1,25.5c0,24.5-20,44.5-44.5,44.5
		c-12.1,0-23.5-4.9-31.8-13.4c3.2-4.5,5.1-9.9,5.1-15.8c0-15-12.2-27.1-27.1-27.1s-27.1,12.2-27.1,27.1c0,15,12.2,27.1,27.1,27.1
		c1.9,0,3.7-0.2,5.5-0.6c6.2,7.2,13.9,12.8,22.4,16.6c-6,13.4-19.3,22-34,22c-20.5,0-37.2-16.7-37.2-37.2c0-5.4-4.4-9.8-9.8-9.8
		c-5.4,0-9.8,4.4-9.8,9.8c0,31.3,25.5,56.8,56.8,56.8c22.4,0,42.8-13.3,51.9-33.8l1.2-2.6c2.3,0.2,4.5,0.4,6.8,0.4
		c9.5,0,18.5-2.1,26.7-5.8v4.7c0,2.6,1,5.1,2.9,6.9l28.9,28.9c-2.5,4.6-3.9,9.9-3.9,15.5c0,18.3,14.9,33.2,33.2,33.2
		S500,485,500,466.7C500,448.4,485.1,433.5,466.8,433.5"/>
</g>
</svg>
